<?xml version="1.0" encoding="UTF-8" standalone="no"?>
<!DOCTYPE svg PUBLIC "-//W3C//DTD SVG 1.1//EN" "http://www.w3.org/Graphics/SVG/1.1/DTD/svg11.dtd">
<svg width="100%" height="100%" viewBox="0 0 61 9" version="1.1" xmlns="http://www.w3.org/2000/svg" xmlns:xlink="http://www.w3.org/1999/xlink" xml:space="preserve" xmlns:serif="http://www.serif.com/" style="fill-rule:evenodd;clip-rule:evenodd;stroke-linejoin:round;stroke-miterlimit:2;">
    <g>
        <path d="M16.429,0.006L16.429,3.521L11.532,3.521L11.532,0.006L9.749,0.005L9.749,8.867L11.532,8.867L11.532,5.06L16.429,5.06L16.429,8.867L18.215,8.867L18.215,0.006L16.429,0.006Z" style="fill:white;fill-rule:nonzero;"/>
        <path d="M40.154,0.006L40.154,8.864L47.978,8.864L46.987,7.306L41.943,7.306L41.943,5.06L46.827,5.06L46.827,3.558L41.943,3.558L41.943,1.529L46.979,1.529L47.95,0.006L40.154,0.006Z" style="fill:white;fill-rule:nonzero;"/>
        <path d="M3.12,0.004C1.265,0.004 0.328,1.132 0.328,2.773L0.328,6.081C0.328,7.98 1.535,8.867 3.111,8.867L8.706,8.866L7.669,7.246L3.456,7.246C2.561,7.246 2.172,6.923 2.172,5.921L2.172,2.92C2.172,1.952 2.5,1.574 3.48,1.574L7.712,1.574L8.708,0.004L3.12,0.004Z" style="fill:white;fill-rule:nonzero;"/>
        <path d="M32.328,0.002C31.256,0.002 30.159,0.646 30.159,2.303L30.159,2.728C30.159,4.454 31.216,5.113 32.272,5.118L35.983,5.118C36.369,5.118 36.682,5.182 36.682,5.833L36.682,6.586C36.672,7.17 36.38,7.305 35.971,7.305L31.088,7.305L30.088,8.864L36.084,8.864C37.53,8.864 38.512,8.145 38.512,6.483L38.512,5.873C38.512,4.266 37.6,3.507 36.186,3.507L32.643,3.507C32.25,3.507 31.977,3.4 31.977,2.818L31.977,2.205C31.977,1.709 32.165,1.529 32.623,1.529L37.271,1.527L38.242,0L32.328,0.002Z" style="fill:white;fill-rule:nonzero;"/>
        <path d="M24.277,1.846L25.892,5.529L22.672,5.529L24.277,1.846ZM23.397,0.007L19.195,8.866L21.181,8.866L21.999,7.036L26.565,7.036L27.38,8.866L29.374,8.866L25.163,0.007L23.397,0.007Z" style="fill:white;fill-rule:nonzero;"/>
        <path d="M54.943,0C54.77,0 54.631,0.14 54.631,0.313L54.631,2.505L60.42,2.505L57.784,0L54.943,0Z" style="fill:white;fill-rule:nonzero;"/>
        <path d="M60.633,3.167C60.633,2.995 60.493,2.855 60.32,2.855L58.129,2.855L58.129,8.645L60.632,6.007L60.633,3.167Z" style="fill:white;fill-rule:nonzero;"/>
        <path d="M57.464,8.856C57.637,8.856 57.776,8.716 57.776,8.543L57.776,6.352L51.985,6.352L54.623,8.856L57.464,8.856Z" style="fill:white;fill-rule:nonzero;"/>
        <path d="M51.775,5.688C51.775,5.861 51.915,6.002 52.087,6.002L54.279,6.002L54.279,0.212L51.775,2.848L51.775,5.688Z" style="fill:white;fill-rule:nonzero;"/>
    </g>
</svg>
