<?xml version="1.0" encoding="UTF-8" standalone="no"?>
<!DOCTYPE svg PUBLIC "-//W3C//DTD SVG 1.1//EN" "http://www.w3.org/Graphics/SVG/1.1/DTD/svg11.dtd">
<svg width="100%" height="100%" viewBox="0 0 580 156" version="1.1" xmlns="http://www.w3.org/2000/svg" xmlns:xlink="http://www.w3.org/1999/xlink" xml:space="preserve" xmlns:serif="http://www.serif.com/" style="fill-rule:evenodd;clip-rule:evenodd;stroke-linecap:square;stroke-linejoin:round;stroke-miterlimit:1.5;">
    <path d="M409.444,34.851L409.444,124.049" style="fill:none;stroke:rgb(214,31,46);stroke-width:3.75px;"/>
    <path d="M62.405,77.91C62.405,69.14 60.227,62.634 55.871,58.392C51.515,54.15 45.151,52.029 36.78,52.029L29.349,52.029L29.349,97.47C29.349,98.04 29.492,98.524 29.776,98.922C30.061,99.321 30.545,99.634 31.228,99.862C31.912,100.09 32.851,100.261 34.047,100.374C35.243,100.488 36.752,100.545 38.574,100.545C42.959,100.545 46.66,100.018 49.678,98.965C52.696,97.912 55.145,96.403 57.024,94.438C58.903,92.473 60.27,90.096 61.124,87.306C61.978,84.515 62.405,81.383 62.405,77.91ZM71.374,76.287C71.374,79.647 70.791,82.978 69.623,86.281C68.456,89.583 66.691,92.559 64.327,95.207C61.964,97.855 58.975,99.99 55.359,101.613C51.743,103.236 47.514,104.047 42.674,104.047L25.164,104.047C23.683,104.047 22.003,104.09 20.124,104.175C18.245,104.261 16.423,104.361 14.658,104.474C14.544,103.905 14.487,103.449 14.487,103.108C14.487,102.311 14.8,101.855 15.426,101.741C17.533,101.229 19.042,100.745 19.953,100.289C20.864,99.833 21.32,99.093 21.32,98.068L21.32,54.591C21.32,53.452 20.893,52.655 20.039,52.199C19.185,51.744 17.647,51.317 15.426,50.918C15.085,50.861 14.843,50.69 14.7,50.406C14.558,50.121 14.487,49.808 14.487,49.466C14.487,49.124 14.544,48.669 14.658,48.099C15.853,48.213 16.893,48.284 17.775,48.313C18.658,48.341 19.498,48.384 20.295,48.441C21.092,48.498 21.875,48.526 22.644,48.526L42.589,48.526C47.372,48.526 51.572,49.267 55.188,50.747C58.804,52.228 61.808,54.221 64.199,56.726C66.591,59.232 68.385,62.165 69.58,65.524C70.776,68.884 71.374,72.472 71.374,76.287Z" style="fill:white;fill-rule:nonzero;"/>
    <path d="M72.009,99.929C72.009,98.448 72.536,97.153 73.589,96.042C74.643,94.932 75.966,94.377 77.561,94.377C79.041,94.377 80.294,94.932 81.319,96.042C82.344,97.153 82.857,98.448 82.857,99.929C82.857,101.58 82.344,102.933 81.319,103.986C80.294,105.04 79.041,105.566 77.561,105.566C75.966,105.566 74.643,105.04 73.589,103.986C72.536,102.933 72.009,101.58 72.009,99.929Z" style="fill:white;fill-rule:nonzero;"/>
    <path d="M105.323,97.824C105.323,98.792 105.75,99.475 106.604,99.874C107.458,100.273 108.626,100.472 110.106,100.472L119.417,100.472C121.068,100.472 122.492,100.258 123.687,99.831C124.883,99.404 125.908,98.792 126.762,97.995C127.617,97.198 128.371,96.215 129.026,95.048C129.681,93.881 130.265,92.557 130.777,91.076C130.948,90.621 131.29,90.393 131.802,90.393C132.087,90.393 132.386,90.464 132.699,90.606C133.012,90.749 133.34,90.905 133.681,91.076C133.283,92.784 132.898,94.592 132.528,96.5C132.158,98.408 131.831,100.557 131.546,102.949C131.489,103.575 131.318,103.974 131.033,104.145C130.749,104.316 130.407,104.401 130.008,104.401C129.04,104.401 127.83,104.33 126.378,104.188C124.926,104.045 123.659,103.974 122.577,103.974L101.223,103.974C99.913,103.974 98.262,104.017 96.269,104.102C94.276,104.188 92.368,104.287 90.546,104.401C90.432,103.832 90.375,103.376 90.375,103.034C90.375,102.237 90.66,101.782 91.229,101.668C93.564,101.269 95.158,100.828 96.012,100.344C96.867,99.86 97.294,99.105 97.294,98.08L97.294,54.518C97.294,53.379 96.895,52.567 96.098,52.083C95.301,51.599 93.763,51.187 91.485,50.845C91.201,50.788 90.987,50.631 90.845,50.375C90.702,50.119 90.631,49.82 90.631,49.478C90.631,49.08 90.688,48.596 90.802,48.026C92.738,48.14 94.646,48.24 96.525,48.325C98.404,48.411 99.999,48.453 101.308,48.453C103.244,48.453 105.294,48.411 107.458,48.325C109.622,48.24 111.558,48.14 113.267,48.026C113.381,48.596 113.437,49.051 113.437,49.393C113.437,50.361 113.124,50.873 112.498,50.93C110.049,51.215 108.241,51.628 107.074,52.169C105.907,52.71 105.323,53.692 105.323,55.116L105.323,97.824Z" style="fill:white;fill-rule:nonzero;"/>
    <path d="M141.307,100.025C141.307,98.544 141.834,97.249 142.887,96.138C143.941,95.028 145.265,94.473 146.859,94.473C148.34,94.473 149.593,95.028 150.618,96.138C151.643,97.249 152.155,98.544 152.155,100.025C152.155,101.676 151.643,103.028 150.618,104.082C149.593,105.135 148.34,105.662 146.859,105.662C145.265,105.662 143.941,105.135 142.887,104.082C141.834,103.028 141.307,101.676 141.307,100.025Z" style="fill:white;fill-rule:nonzero;"/>
    <path d="M189.098,52.029L189.098,73.895L202.423,73.895C203.561,73.895 204.373,73.34 204.857,72.23C205.341,71.119 205.725,69.767 206.01,68.172C206.181,67.432 206.693,67.062 207.548,67.062C207.718,67.062 207.946,67.09 208.231,67.147C208.516,67.204 208.743,67.261 208.914,67.318C208.8,68.571 208.701,69.995 208.615,71.589C208.53,73.183 208.487,74.579 208.487,75.774C208.487,76.742 208.516,77.924 208.573,79.319C208.629,80.714 208.743,82.295 208.914,84.06C208.459,84.174 208.032,84.231 207.633,84.231C206.722,84.231 206.181,83.861 206.01,83.12C205.725,81.526 205.341,80.173 204.857,79.063C204.373,77.953 203.561,77.397 202.423,77.397L189.098,77.397L189.098,97.556C189.098,98.751 189.866,99.549 191.404,99.947C192.941,100.346 195.475,100.545 199.006,100.545L203.704,100.545C205.355,100.545 206.793,100.303 208.017,99.819C209.242,99.335 210.324,98.68 211.263,97.855C212.203,97.029 213.043,96.047 213.783,94.908C214.523,93.769 215.235,92.516 215.918,91.149C216.089,90.751 216.516,90.551 217.2,90.551C217.484,90.551 217.783,90.637 218.096,90.808C218.41,90.979 218.709,91.149 218.993,91.32C218.481,92.402 218.04,93.698 217.669,95.207C217.299,96.716 216.943,98.154 216.602,99.52C216.26,100.887 215.904,102.054 215.534,103.022C215.164,103.99 214.694,104.474 214.125,104.474C213.669,104.474 213.014,104.446 212.16,104.389C211.306,104.332 210.381,104.289 209.384,104.261C208.387,104.232 207.377,104.19 206.352,104.133C205.327,104.076 204.444,104.047 203.704,104.047L184.998,104.047C183.346,104.047 181.581,104.09 179.702,104.175C177.823,104.261 176.029,104.361 174.32,104.474C174.207,103.905 174.15,103.449 174.15,103.108C174.15,102.311 174.434,101.855 175.004,101.741C177.168,101.342 178.719,100.915 179.659,100.46C180.599,100.004 181.068,99.207 181.068,98.068L181.068,54.591C181.068,53.452 180.656,52.669 179.83,52.242C179.004,51.815 177.395,51.374 175.004,50.918C174.434,50.804 174.15,50.32 174.15,49.466C174.15,49.181 174.164,48.939 174.192,48.74C174.221,48.541 174.264,48.327 174.32,48.099C176.769,48.27 178.819,48.384 180.47,48.441C182.122,48.498 183.602,48.526 184.912,48.526L201.739,48.526C204.302,48.526 206.523,48.441 208.402,48.27C210.281,48.099 211.534,48.014 212.16,48.014C212.9,48.014 213.399,48.484 213.655,49.423C213.911,50.363 214.125,51.488 214.295,52.797C214.466,54.107 214.666,55.502 214.893,56.983C215.121,58.463 215.548,59.716 216.175,60.741C215.719,61.083 215.207,61.254 214.637,61.254C213.897,61.254 213.413,60.997 213.185,60.485C212.502,59.004 211.847,57.737 211.22,56.684C210.594,55.63 209.868,54.762 209.042,54.079C208.217,53.395 207.22,52.883 206.053,52.541C204.885,52.199 203.448,52.029 201.739,52.029L189.098,52.029Z" style="fill:white;fill-rule:nonzero;"/>
    <path d="M242.568,94.737C245.302,87.961 247.337,82.75 248.676,79.106C250.014,75.461 250.683,73.183 250.683,72.272C250.683,71.703 250.498,71.233 250.128,70.863C249.758,70.493 248.861,70.194 247.437,69.966C246.697,69.909 246.327,69.539 246.327,68.856C246.327,68.742 246.355,68.571 246.412,68.343C246.469,68.115 246.526,67.916 246.583,67.745C248.804,67.916 251.167,68.001 253.673,68.001C254.982,68.001 256.135,67.987 257.132,67.959C258.128,67.93 259.082,67.859 259.993,67.745C260.164,68.201 260.25,68.571 260.25,68.856C260.25,69.197 260.15,69.439 259.951,69.582C259.751,69.724 259.481,69.909 259.139,70.137C258.114,70.763 257.118,71.333 256.15,71.845C255.182,72.358 254.47,73.183 254.014,74.322L241.629,104.901C241.287,105.015 240.86,105.072 240.348,105.072C239.721,105.072 239.28,104.802 239.024,104.261C238.767,103.72 238.354,102.795 237.785,101.485L226.083,74.322C225.741,73.468 225.428,72.799 225.143,72.315C224.859,71.831 224.545,71.447 224.204,71.162C223.862,70.877 223.435,70.664 222.923,70.521C222.41,70.379 221.755,70.251 220.958,70.137C220.218,70.08 219.848,69.653 219.848,68.856C219.848,68.571 219.933,68.201 220.104,67.745C221.527,67.859 222.866,67.93 224.118,67.959C225.371,67.987 226.823,68.001 228.475,68.001C230.297,68.001 231.906,67.987 233.301,67.959C234.696,67.93 236.134,67.859 237.614,67.745C237.785,68.087 237.87,68.457 237.87,68.856C237.87,69.539 237.5,69.909 236.76,69.966C235.393,70.194 234.496,70.436 234.069,70.692C233.642,70.948 233.429,71.304 233.429,71.76C233.429,72.045 233.6,72.742 233.941,73.853C234.283,74.963 234.824,76.401 235.564,78.166L242.568,94.737Z" style="fill:white;fill-rule:nonzero;"/>
    <path d="M295.567,101.741C296.194,101.741 296.535,102.339 296.592,103.535C295.112,104.56 293.233,105.072 290.955,105.072C289.702,105.072 288.62,104.887 287.709,104.517C286.798,104.147 286.029,103.649 285.403,103.022C284.776,102.396 284.292,101.684 283.951,100.887C283.609,100.09 283.381,99.264 283.267,98.41C281.844,100.972 280.15,102.723 278.185,103.663C276.22,104.603 273.957,105.072 271.394,105.072C270.256,105.072 269.045,104.973 267.764,104.773C266.483,104.574 265.273,104.161 264.134,103.535C262.995,102.908 262.056,102.026 261.315,100.887C260.575,99.748 260.205,98.239 260.205,96.36C260.205,94.253 260.703,92.473 261.7,91.021C262.696,89.569 263.977,88.373 265.543,87.434C267.109,86.494 268.818,85.74 270.668,85.17C272.519,84.601 274.299,84.117 276.007,83.718C276.975,83.547 277.872,83.362 278.698,83.163C279.523,82.964 280.249,82.75 280.876,82.522C281.673,82.295 282.171,81.981 282.37,81.583C282.57,81.184 282.669,80.415 282.669,79.276C282.669,76.6 282.157,74.393 281.132,72.657C280.107,70.92 278.285,70.051 275.665,70.051C274.697,70.051 273.872,70.165 273.188,70.393C272.505,70.621 271.935,70.977 271.48,71.461C271.024,71.945 270.626,72.586 270.284,73.383C269.942,74.18 269.601,75.12 269.259,76.201C269.088,76.828 268.704,77.283 268.106,77.568C267.508,77.853 266.497,78.195 265.074,78.593C264.732,78.707 264.305,78.821 263.792,78.935C263.28,79.049 262.853,79.106 262.511,79.106C261.942,79.106 261.657,78.508 261.657,77.312C261.657,76.059 262.141,74.806 263.109,73.554C264.077,72.301 265.316,71.19 266.825,70.222C268.334,69.254 269.971,68.471 271.736,67.873C273.501,67.275 275.181,66.976 276.776,66.976C278.769,66.976 280.562,67.147 282.157,67.489C283.751,67.831 285.118,68.457 286.257,69.368C287.396,70.279 288.264,71.504 288.862,73.041C289.46,74.579 289.759,76.572 289.759,79.02L289.759,93.712C289.759,95.705 289.83,97.143 289.973,98.025C290.115,98.908 290.328,99.606 290.613,100.118C291.012,100.915 291.453,101.442 291.937,101.698C292.421,101.955 292.919,102.083 293.432,102.083C294.058,102.083 294.5,102.026 294.756,101.912C295.012,101.798 295.283,101.741 295.567,101.741ZM282.669,85.085L279.936,85.512C278.456,85.797 277.018,86.138 275.623,86.537C274.227,86.936 272.989,87.491 271.907,88.203C270.825,88.914 269.957,89.811 269.302,90.893C268.647,91.975 268.319,93.313 268.319,94.908C268.319,97.072 268.875,98.723 269.985,99.862C271.095,101.001 272.476,101.57 274.128,101.57C275.21,101.57 276.277,101.328 277.331,100.844C278.384,100.36 279.295,99.677 280.064,98.794C280.833,97.912 281.459,96.872 281.943,95.676C282.427,94.481 282.669,93.171 282.669,91.747L282.669,85.085Z" style="fill:white;fill-rule:nonzero;"/>
    <path d="M337.007,99.179C337.007,100.033 337.52,100.673 338.545,101.1C339.57,101.528 340.709,101.855 341.962,102.083C342.474,102.197 342.73,102.538 342.73,103.108C342.73,103.449 342.673,103.905 342.56,104.474C341.079,104.361 339.627,104.261 338.203,104.175C336.78,104.09 335.242,104.047 333.591,104.047C332.053,104.047 330.53,104.09 329.021,104.175C327.512,104.261 326.017,104.361 324.537,104.474C324.423,103.905 324.366,103.449 324.366,103.108C324.366,102.538 324.622,102.197 325.135,102.083C326.33,101.855 327.412,101.528 328.38,101.1C329.348,100.673 329.832,100.033 329.832,99.179L329.832,82.437C329.832,81.013 329.747,79.704 329.576,78.508C329.405,77.312 329.078,76.273 328.594,75.39C328.11,74.507 327.455,73.824 326.629,73.34C325.804,72.856 324.736,72.614 323.426,72.614C322.003,72.614 320.607,72.856 319.241,73.34C317.874,73.824 316.664,74.536 315.611,75.475C314.557,76.415 313.717,77.568 313.091,78.935C312.464,80.301 312.151,81.867 312.151,83.633L312.151,99.179C312.151,100.033 312.649,100.673 313.646,101.1C314.643,101.528 315.71,101.855 316.849,102.083C317.362,102.197 317.618,102.538 317.618,103.108C317.618,103.449 317.561,103.905 317.447,104.474C315.966,104.361 314.514,104.261 313.091,104.175C311.667,104.09 310.158,104.047 308.564,104.047C306.912,104.047 305.346,104.09 303.866,104.175C302.385,104.261 300.933,104.361 299.51,104.474C299.396,103.905 299.339,103.449 299.339,103.108C299.339,102.538 299.595,102.197 300.107,102.083C301.36,101.855 302.499,101.528 303.524,101.1C304.549,100.673 305.062,100.004 305.062,99.093L305.062,75.86C305.062,74.151 304.763,72.927 304.165,72.187C303.567,71.447 302.271,70.991 300.278,70.82C299.538,70.706 299.168,70.308 299.168,69.624C299.168,69.34 299.225,68.97 299.339,68.514C300.079,68.514 301.118,68.471 302.456,68.386C303.795,68.3 304.891,68.201 305.745,68.087C307.055,67.859 308.222,67.617 309.247,67.361C310.272,67.105 311.012,66.976 311.468,66.976C312.265,66.976 312.664,67.404 312.664,68.258C312.664,69.055 312.578,70.009 312.407,71.119C312.237,72.23 312.151,73.696 312.151,75.518C314.6,72.785 316.949,70.678 319.198,69.197C321.447,67.717 323.91,66.976 326.587,66.976C330.06,66.976 332.665,67.987 334.402,70.009C336.139,72.03 337.007,74.835 337.007,78.422L337.007,99.179Z" style="fill:white;fill-rule:nonzero;"/>
    <path d="M369.809,77.483C369.354,77.483 369.026,77.383 368.827,77.184C368.628,76.984 368.499,76.771 368.442,76.543C368.044,74.208 367.119,72.543 365.666,71.546C364.214,70.55 362.406,70.051 360.242,70.051C358.591,70.051 357.125,70.521 355.844,71.461C354.562,72.4 353.922,73.696 353.922,75.347C353.922,76.828 354.505,78.066 355.673,79.063C356.84,80.059 358.961,81.042 362.036,82.01C363.688,82.522 365.211,83.092 366.606,83.718C368.001,84.345 369.197,85.099 370.194,85.982C371.19,86.864 371.973,87.946 372.542,89.228C373.112,90.509 373.397,92.032 373.397,93.797C373.397,95.278 373.126,96.701 372.585,98.068C372.044,99.435 371.219,100.631 370.108,101.656C368.998,102.681 367.603,103.506 365.923,104.133C364.243,104.759 362.236,105.072 359.901,105.072C358.079,105.072 356.043,104.859 353.794,104.432C351.544,104.005 349.508,103.279 347.686,102.254C347.572,100.773 347.473,99.221 347.387,97.598C347.302,95.975 347.259,94.338 347.259,92.687L348.113,92.687C348.683,92.687 349.167,92.787 349.565,92.986C349.964,93.185 350.192,93.513 350.249,93.968C350.477,96.36 351.402,98.282 353.025,99.734C354.648,101.186 356.911,101.912 359.815,101.912C362.15,101.912 363.944,101.385 365.197,100.332C366.449,99.278 367.076,97.84 367.076,96.018C367.076,94.139 366.392,92.701 365.026,91.705C363.659,90.708 361.638,89.811 358.961,89.014C355.602,87.989 352.968,86.651 351.06,84.999C349.153,83.348 348.199,80.928 348.199,77.739C348.199,76.258 348.483,74.863 349.053,73.554C349.622,72.244 350.42,71.105 351.445,70.137C352.47,69.169 353.722,68.4 355.203,67.831C356.683,67.261 358.335,66.976 360.157,66.976C362.435,66.976 364.584,67.275 366.606,67.873C368.628,68.471 370.208,69.112 371.347,69.795C371.404,70.251 371.461,70.806 371.517,71.461C371.574,72.116 371.617,72.799 371.646,73.511C371.674,74.223 371.703,74.934 371.731,75.646C371.759,76.358 371.774,76.999 371.774,77.568L369.809,77.483Z" style="fill:white;fill-rule:nonzero;"/>
    <path d="M459.44,90.97C462.521,90.97 464.151,90.156 465.39,88.987C466.878,87.57 467.48,85.87 467.48,84.206C467.48,81.372 465.78,78.964 462.982,78.397C464.894,77.76 466.276,75.741 466.276,73.51C466.276,72.093 465.709,70.854 464.717,69.862C463.513,68.658 461.671,67.843 459.086,67.843L445.663,67.843L445.663,90.97L459.44,90.97ZM460.007,80.239C461.282,80.239 462.415,80.77 463.194,81.585C463.867,82.258 464.292,83.179 464.292,84.17C464.292,85.197 463.867,86.224 463.088,86.968C462.203,87.854 460.892,88.243 459.546,88.243L448.744,88.243L448.744,80.239L460.007,80.239ZM458.767,70.57C460.219,70.57 461.317,70.924 462.132,71.704C462.734,72.341 463.088,73.156 463.088,74.077C463.088,75.068 462.698,76.024 461.99,76.733C461.282,77.441 460.29,77.76 459.192,77.76L448.744,77.76L448.744,70.57L458.767,70.57Z" style="fill:white;fill-rule:nonzero;"/>
    <path d="M480.017,90.97L483.134,84.029L494.68,84.029L497.832,90.97L501.196,90.97L490.465,67.843L487.561,67.843L476.83,90.97L480.017,90.97ZM488.801,71.456L489.013,71.456L493.582,81.549L484.232,81.549L488.801,71.456Z" style="fill:white;fill-rule:nonzero;"/>
    <path d="M529.459,67.843L529.459,85.587L529.423,85.587L514.726,67.843L511.928,67.843L511.928,90.97L515.009,90.97L515.009,73.227L515.044,73.227L529.742,90.97L532.54,90.97L532.54,67.843L529.459,67.843Z" style="fill:white;fill-rule:nonzero;"/>
    <path d="M562.715,67.843L549.505,80.699L549.505,67.843L546.423,67.843L546.423,90.97L549.505,90.97L549.505,84.135L555.065,78.716L564.486,90.97L568.453,90.97L557.296,76.662L566.505,67.843L562.715,67.843Z" style="fill:white;fill-rule:nonzero;"/>
</svg>
