<?xml version="1.0" encoding="UTF-8" standalone="no"?>
<!DOCTYPE svg PUBLIC "-//W3C//DTD SVG 1.1//EN" "http://www.w3.org/Graphics/SVG/1.1/DTD/svg11.dtd">
<svg width="100%" height="100%" viewBox="0 0 160 70" version="1.1" xmlns="http://www.w3.org/2000/svg" xmlns:xlink="http://www.w3.org/1999/xlink" xml:space="preserve" xmlns:serif="http://www.serif.com/" style="fill-rule:evenodd;clip-rule:evenodd;stroke-linejoin:round;stroke-miterlimit:2;">
    <path d="M22.243,67.767L22.243,65.471C24.559,65.305 25.883,65.124 26.214,64.928C26.545,64.731 26.752,64.364 26.835,63.826C27.041,62.689 27.145,59.762 27.145,55.046C27.145,48.572 27.052,44.89 26.866,44C26.783,43.587 26.648,43.318 26.462,43.194C26.049,42.925 24.642,42.78 22.243,42.759L22.243,40.401C25.366,40.071 27.724,39.719 29.317,39.347C30.909,38.974 32.647,38.405 34.529,37.64L35.274,38.043C35.026,41.27 34.901,44.3 34.901,47.134L34.901,57.683C34.901,61.282 34.984,63.413 35.15,64.074C35.232,64.447 35.398,64.695 35.646,64.819C36.205,65.088 37.559,65.264 39.71,65.347L39.71,67.767C36.773,67.684 33.578,67.642 30.123,67.642C27.145,67.642 24.518,67.684 22.243,67.767Z" style="fill:rgb(108,174,224);"/>
    <path d="M29.52,23.827C30.844,23.827 31.966,24.293 32.886,25.223C33.807,26.154 34.267,27.271 34.267,28.574C34.267,29.898 33.807,31.025 32.886,31.956C31.966,32.887 30.844,33.352 29.52,33.352C28.217,33.352 27.1,32.887 26.169,31.956C25.239,31.025 24.773,29.898 24.773,28.574C24.773,27.271 25.233,26.154 26.154,25.223C27.074,24.293 28.196,23.827 29.52,23.827Z" style="fill:rgb(108,174,224);"/>
    <path d="M78.252,65.323L78.252,67.557L71.737,67.463L66.152,67.557L65.873,67.308L66.028,64.857L66.09,62.313C64.663,63.513 63.101,64.857 61.405,66.347C60.743,66.967 60.092,67.495 59.451,67.929C58.665,68.239 57.62,68.394 56.317,68.394C52.883,68.394 50.039,67.138 47.785,64.625C45.53,62.111 44.403,58.673 44.403,54.308C44.403,51.888 44.734,49.727 45.396,47.824C45.892,46.376 46.471,45.259 47.133,44.473C47.609,43.894 49,42.798 51.306,41.184C53.612,39.571 55.267,38.573 56.27,38.19C57.274,37.808 58.571,37.616 60.164,37.616C61.157,37.616 61.979,37.689 62.631,37.833C63.282,37.978 64.404,38.361 65.997,38.981C66.059,37.782 66.09,36.51 66.09,35.165C66.09,33.593 66.038,31.69 65.935,29.456C65.894,28.381 65.78,27.709 65.594,27.44C65.449,27.233 65.242,27.098 64.973,27.036C64.704,26.974 63.432,26.912 61.157,26.85L61.157,24.554C65.563,24.12 69.648,23.22 73.412,21.855L74.219,22.32C73.971,27.864 73.836,31.121 73.816,32.094C73.754,37.492 73.723,45.052 73.723,54.774L73.723,57.659C73.723,59.066 73.774,60.586 73.878,62.22C73.94,63.378 74.043,64.087 74.188,64.345C74.333,64.604 74.571,64.795 74.902,64.919C75.233,65.043 76.349,65.178 78.252,65.323ZM65.997,45.497C64.859,44.132 63.929,43.242 63.205,42.829C61.84,42.043 60.34,41.65 58.706,41.65C57.279,41.65 56.115,41.996 55.215,42.689C54.316,43.382 53.643,44.504 53.199,46.055C52.754,47.607 52.532,49.396 52.532,51.423C52.532,55.187 53.338,58.094 54.952,60.141C56.151,61.651 57.765,62.406 59.792,62.406C61.322,62.406 62.662,61.972 63.81,61.103C64.958,60.234 65.64,59.397 65.857,58.59C66.075,57.783 66.183,55.322 66.183,51.206L65.997,45.497Z" style="fill:rgb(108,174,224);fill-rule:nonzero;"/>
    <path d="M107.065,63.216L106.072,65.45C104.645,66.339 103.6,66.929 102.938,67.218C101.966,67.653 100.854,68.02 99.603,68.32C98.351,68.62 97.033,68.77 95.647,68.77C92.917,68.77 90.445,68.201 88.232,67.063C86.018,65.926 84.296,64.224 83.066,61.96C81.835,59.695 81.22,57.042 81.22,54.001C81.22,51.623 81.545,49.477 82.197,47.563C82.849,45.65 83.588,44.238 84.415,43.328C85.015,42.666 85.946,41.906 87.208,41.048C88.47,40.189 89.721,39.512 90.962,39.016C92.596,38.333 94.364,37.992 96.267,37.992C98.584,37.992 100.678,38.519 102.55,39.574C104.422,40.629 105.792,42.067 106.661,43.887C107.53,45.707 107.964,47.765 107.964,50.061C107.964,50.64 107.923,51.343 107.84,52.171C106.351,52.46 105.017,52.646 103.838,52.729C101.604,52.895 99.37,52.977 97.136,52.977L87.177,52.977C87.218,55.935 87.73,58.329 88.713,60.16C89.695,61.991 91.05,63.34 92.777,64.209C94.504,65.078 96.298,65.512 98.16,65.512C99.422,65.512 100.678,65.31 101.93,64.907C103.181,64.504 104.727,63.764 106.568,62.689L107.065,63.216ZM87.177,50.526C87.756,50.588 88.852,50.65 90.466,50.713C93.547,50.816 95.668,50.868 96.826,50.868C99.577,50.868 101.387,50.816 102.255,50.713C102.276,50.216 102.287,49.833 102.287,49.565C102.287,46.296 101.625,43.897 100.301,42.366C98.977,40.836 97.209,40.071 94.995,40.071C92.658,40.071 90.776,40.908 89.349,42.584C87.921,44.259 87.197,46.907 87.177,50.526Z" style="fill:rgb(108,174,224);fill-rule:nonzero;"/>
    <path d="M115.859,46.544L114.162,46.109C114.184,45.634 114.194,44.982 114.194,44.155C114.194,43.286 114.184,42.593 114.162,42.076C116.873,40.359 119.093,39.201 120.822,38.601C122.146,38.167 123.629,37.949 125.273,37.949C127.706,37.949 129.755,38.394 131.42,39.283C133.085,40.173 134.323,41.445 135.134,43.1C135.689,44.258 135.967,45.84 135.967,47.847L135.839,53.525L135.839,62.77C135.839,63.763 135.924,64.477 136.095,64.911C136.223,65.221 136.426,65.449 136.703,65.594C136.917,65.718 137.365,65.801 138.048,65.842L140.129,66.028L140.129,67.797C138.379,67.652 136.842,67.579 135.519,67.579C134.238,67.579 132.53,67.652 130.396,67.797L130.556,62.336C126.201,65.521 123.619,67.316 122.807,67.719C121.996,68.122 120.972,68.324 119.734,68.324C117.151,68.324 115.139,67.657 113.698,66.323C112.257,64.989 111.537,63.215 111.537,61.002C111.537,59.575 111.788,58.272 112.289,57.093C112.791,55.914 113.394,54.978 114.098,54.285C114.803,53.592 115.518,53.08 116.244,52.749C117.482,52.19 119.493,51.591 122.279,50.949C125.065,50.308 127.824,49.832 130.556,49.522C130.577,47.557 130.332,46.027 129.819,44.93C129.307,43.834 128.443,42.934 127.226,42.231C126.009,41.528 124.526,41.176 122.775,41.176C121.516,41.176 120.411,41.342 119.461,41.673C118.512,42.003 117.93,42.283 117.716,42.51L117.14,43.627C116.564,44.868 116.137,45.84 115.859,46.544ZM130.556,51.415C127.781,51.87 125.412,52.377 123.448,52.935C121.484,53.493 120.096,54.073 119.285,54.672C118.794,55.024 118.368,55.552 118.005,56.255C117.45,57.289 117.172,58.437 117.172,59.699C117.172,61.229 117.61,62.424 118.485,63.282C119.36,64.141 120.577,64.57 122.135,64.57C123.565,64.57 124.979,64.172 126.377,63.375C127.776,62.579 129.168,61.384 130.556,59.792L130.556,51.415Z" style="fill:rgb(108,174,224);fill-rule:nonzero;"/>
    <path d="M142.653,67.743L142.653,65.975L145.57,65.944C146.025,65.923 146.371,65.845 146.609,65.711C146.847,65.576 147.028,65.406 147.152,65.199C147.38,64.785 147.514,64.051 147.555,62.996C147.576,62.727 147.649,59.759 147.773,54.092L147.773,41.216C147.773,37.761 147.711,34.193 147.586,30.512C147.504,28.03 147.39,26.644 147.245,26.354C147.142,26.147 146.976,26.002 146.749,25.92C146.439,25.775 145.011,25.703 142.467,25.703L142.467,23.872C147.142,23.293 150.389,22.569 152.209,21.7C152.478,21.576 152.685,21.514 152.83,21.514C152.975,21.514 153.088,21.561 153.171,21.654C153.254,21.747 153.295,21.876 153.295,22.041C153.295,22.186 153.275,22.393 153.233,22.662L153.202,23.686C153.099,27.388 153.037,30.543 153.016,33.149L152.954,37.989L152.954,54.092C153.057,59.469 153.119,62.376 153.14,62.81C153.161,63.844 153.285,64.599 153.512,65.075C153.595,65.261 153.719,65.421 153.885,65.556C154.05,65.69 154.298,65.799 154.629,65.882C154.774,65.902 155.922,65.933 158.073,65.975L158.073,67.743C155.26,67.578 152.789,67.495 150.658,67.495C148.631,67.495 145.963,67.578 142.653,67.743Z" style="fill:rgb(108,174,224);fill-rule:nonzero;"/>
    <path d="M34.89,1.167L28.823,16.136C28.823,16.136 30.843,16.201 31.815,16.416C32.787,16.632 34.653,17.429 34.653,17.429L34.89,1.167Z" style="fill:rgb(244,175,56);"/>
    <path d="M13.844,5.141L19.988,20.079C19.988,20.079 21.477,18.711 22.322,18.185C23.166,17.659 25.057,16.922 25.057,16.922L13.844,5.141Z" style="fill:rgb(244,175,56);"/>
    <path d="M1.546,23.205L16.675,28.863C16.675,28.863 16.684,26.842 16.873,25.864C17.062,24.887 17.808,23 17.808,23L1.546,23.205Z" style="fill:rgb(244,175,56);"/>
    <path d="M5.071,44.439L19.98,38.223C19.98,38.223 18.604,36.741 18.074,35.899C17.544,35.057 16.798,33.17 16.798,33.17L5.071,44.439Z" style="fill:rgb(244,175,56);"/>
    <path d="M52.738,13.06L37.749,19.081C37.749,19.081 39.105,20.581 39.624,21.43C40.144,22.279 40.865,24.175 40.865,24.175L52.738,13.06Z" style="fill:rgb(244,175,56);"/>
    <path d="M57.274,33.968L42.26,28.009C42.26,28.009 42.21,30.03 42.002,31.004C41.793,31.977 41.01,33.848 41.01,33.848L57.274,33.968Z" style="fill:rgb(244,175,56);"/>
</svg>
