<svg height='100px' width='100px'  fill="rgba(255,255,255,0.9)" xmlns="http://www.w3.org/2000/svg" xmlns:xlink="http://www.w3.org/1999/xlink" version="1.1" x="0px" y="0px" viewBox="0 0 1024 1024" style="enable-background:new 0 0 1024 1024;" xml:space="preserve"><g><g><g><path d="M467,378.2c0,28.3,0,56.6,0,84.9c0,44.9,0,89.7,0,134.6c0,10.3,0,20.6,0,30.9c0,11.5,5,23.7,13.2,31.8     c7.8,7.8,20.6,13.7,31.8,13.2c11.6-0.5,23.7-4.3,31.8-13.2c8.1-8.8,13.2-19.6,13.2-31.8c0-28.3,0-56.6,0-84.9     c0-44.9,0-89.7,0-134.6c0-10.3,0-20.6,0-30.9c0-11.5-5-23.7-13.2-31.8c-7.8-7.8-20.6-13.7-31.8-13.2     c-11.6,0.5-23.7,4.3-31.8,13.2C472.1,355.2,467,366,467,378.2L467,378.2z"></path></g></g><g><g><path d="M512,792.9c11.5,0,23.7-5,31.8-13.2c7.8-7.8,13.7-20.6,13.2-31.8c-0.5-11.6-4.3-23.7-13.2-31.8     c-8.8-8.1-19.6-13.2-31.8-13.2c-11.5,0-23.7,5-31.8,13.2c-7.8,7.8-13.7,20.6-13.2,31.8c0.5,11.6,4.3,23.7,13.2,31.8     C489,787.8,499.8,792.9,512,792.9L512,792.9z"></path></g></g><g><g><path d="M895.7,850c-6.9,0-13.8,0-20.7,0c-18.8,0-37.6,0-56.4,0c-27.8,0-55.6,0-83.3,0c-33.9,0-67.7,0-101.6,0     c-37,0-74.1,0-111.1,0c-37.1,0-74.3,0-111.4,0c-34.7,0-69.4,0-104.1,0c-29.2,0-58.3,0-87.5,0c-20.7,0-41.5,0-62.2,0     c-9.4,0-18.8,0-28.2,0c-2.9,0-5.8-0.2-8.7-0.6c4,0.5,8,1.1,12,1.6c-4.6-0.7-9-1.9-13.2-3.7c3.6,1.5,7.2,3,10.7,4.5     c-4.1-1.8-7.8-4-11.4-6.8c3,2.3,6.1,4.7,9.1,7c-3.4-2.7-6.5-5.8-9.2-9.2c2.3,3,4.7,6.1,7,9.1c-2.9-3.8-5.3-7.8-7.2-12.2     c1.5,3.6,3,7.2,4.5,10.7c-1.8-4.4-3.1-9-3.8-13.7c0.5,4,1.1,8,1.6,12c-0.6-4.8-0.6-9.6,0-14.5c-0.5,4-1.1,8-1.6,12     c0.7-4.6,2-9,3.8-13.3c-1.5,3.6-3,7.2-4.5,10.7c3.5-7.8,8.3-15.1,12.6-22.4c9.3-15.9,18.5-31.8,27.8-47.7     c13.8-23.7,27.5-47.4,41.3-71.1c16.9-29.1,33.9-58.3,50.8-87.4c18.5-31.8,37-63.7,55.5-95.5c18.8-32.3,37.5-64.5,56.3-96.8     c17.5-30,34.9-60.1,52.4-90.1c14.7-25.3,29.4-50.5,44.1-75.8c10.4-17.9,20.8-35.8,31.2-53.7c4.7-8.2,9.5-16.3,14.2-24.5     c1.4-2.4,3-4.8,4.7-7.1c-2.3,3-4.7,6.1-7,9.1c2.8-3.5,6-6.6,9.6-9.4c-3,2.3-6.1,4.7-9.1,7c3.5-2.6,7.2-4.7,11.2-6.4     c-3.6,1.5-7.2,3-10.7,4.5c4.3-1.8,8.7-3,13.3-3.7c-4,0.5-8,1.1-12,1.6c5-0.6,9.9-0.6,14.9,0c-4-0.5-8-1.1-12-1.6     c4.6,0.7,9,1.9,13.3,3.7c-3.6-1.5-7.2-3-10.7-4.5c4,1.7,7.7,3.9,11.2,6.4c-3-2.3-6.1-4.7-9.1-7c3.6,2.8,6.7,5.9,9.6,9.4     c-2.3-3-4.7-6.1-7-9.1c5.3,6.9,9.4,15.1,13.7,22.6c9.2,15.8,18.4,31.7,27.6,47.5c13.7,23.6,27.5,47.3,41.2,70.9     c16.9,29.1,33.9,58.2,50.8,87.3c18.5,31.8,37,63.6,55.5,95.4c18.8,32.3,37.5,64.6,56.3,96.8c17.5,30.1,35,60.1,52.4,90.2     c14.7,25.3,29.4,50.6,44.2,76c10.5,18,20.9,35.9,31.4,53.9c4.8,8.3,9.6,16.5,14.4,24.8c1.2,2.2,2.4,4.4,3.4,6.7     c-1.5-3.6-3-7.2-4.5-10.7c1.8,4.3,3,8.7,3.8,13.3c-0.5-4-1.1-8-1.6-12c0.6,4.8,0.7,9.6,0,14.5c0.5-4,1.1-8,1.6-12     c-0.7,4.7-2,9.3-3.8,13.7c1.5-3.6,3-7.2,4.5-10.7c-1.9,4.4-4.3,8.4-7.2,12.2c2.3-3,4.7-6.1,7-9.1c-2.7,3.4-5.8,6.5-9.2,9.2     c3-2.3,6.1-4.7,9.1-7c-3.5,2.7-7.3,4.9-11.4,6.8c3.6-1.5,7.2-3,10.7-4.5c-4.3,1.8-8.7,3-13.2,3.7c4-0.5,8-1.1,12-1.6     C900.9,849.8,898.3,850,895.7,850c-11.6,0.1-23.6,4.9-31.8,13.2c-7.8,7.8-13.7,20.6-13.2,31.8c0.5,11.6,4.3,23.7,13.2,31.8     c8.7,8,19.7,13.3,31.8,13.2c34.2-0.4,63.6-17.4,82.7-45.4c16-23.4,20.4-57.7,10.1-84.2c-4-10.2-8.5-18.7-13.9-28     c-15.7-26.9-31.3-53.8-47-80.8c-26-44.6-51.9-89.3-77.9-133.9c-30.3-52.1-60.6-104.2-90.9-156.3c-28.1-48.4-56.3-96.7-84.4-145.1     c-20-34.4-40.1-68.9-60.1-103.3c-4.9-8.5-9.9-17-14.8-25.5c-0.9-1.5-1.8-3-2.7-4.6c-12.7-21.4-31.9-36.2-55.3-44.3     c-26.1-9-59.5-4.8-82.3,10.8c-13.4,9.2-24.3,20.1-32.5,34.2c-3.5,6-7,12-10.5,18c-17.9,30.8-35.9,61.7-53.8,92.5     c-27.1,46.7-54.3,93.3-81.4,140c-30.4,52.3-60.8,104.6-91.2,156.8c-27.1,46.7-54.3,93.3-81.4,140c-17.9,30.8-35.9,61.7-53.8,92.5     c-3.5,6-7,12-10.5,18c-8.5,14.7-12.6,29.7-13.8,46.5c-2,27.3,11,58.3,31.8,76.2c19,16.3,41.2,25.5,66.5,25.7c1.8,0,3.7,0,5.6,0     c10,0,19.9,0,29.9,0c39.9,0,79.9,0,119.8,0c56,0,111.9,0,167.9,0c60.3,0,120.6,0,180.9,0c51.8,0,103.6,0,155.4,0     c31.6,0,63.2,0,94.8,0c4.3,0,8.5,0,12.8,0c11.5,0,23.7-5,31.8-13.2c7.8-7.8,13.7-20.6,13.2-31.8c-0.5-11.6-4.3-23.7-13.2-31.8     C918.7,855.1,907.9,850,895.7,850z"></path></g></g></g></svg>
