<svg height='100px' width='100px'  fill="rgba(255,255,255,0.9)" xmlns="http://www.w3.org/2000/svg" xmlns:xlink="http://www.w3.org/1999/xlink" version="1.1" x="0px" y="0px" viewBox="0 0 512 512" enable-background="new 0 0 512 512" xml:space="preserve"><g><path d="M326.9,168.7c-26.4-21.5-61.1-29.7-95-22.7c-44.2,9.2-79.1,45.5-86.8,90.2c-7.5,43.7,10.2,86.5,46.2,111.8   c5.2,3.6,8.4,10.6,8.4,18.1v21.2h112.5v-21.7c0-7.2,4-14.3,11-19.5c28.8-21.5,45.2-54.3,45.2-90.1   C368.5,222,353.3,190.1,326.9,168.7z"></path><path d="M293.5,406h-75c-10.4,0-18.8,8.4-18.8,18.8c0,10.4,8.4,18.8,18.8,18.8h75c10.4,0,18.8-8.4,18.8-18.8   C312.3,414.4,303.9,406,293.5,406z"></path><rect x="237.3" y="68.5" width="37.5" height="56.3"></rect><polygon points="401.8,136.7 375.3,110.2 335.5,149.9 362.1,176.4  "></polygon><rect x="387.3" y="237.3" width="56.3" height="37.5"></rect><rect x="115.2" y="124.6" transform="matrix(0.7071 0.7071 -0.7071 0.7071 143.3022 -59.3577)" width="56.3" height="37.5"></rect><rect x="68.5" y="237.3" width="56.3" height="37.5"></rect></g></svg>
