<svg viewBox="0 0 61 9" xmlns="http://www.w3.org/2000/svg" fill-rule="evenodd" clip-rule="evenodd" stroke-linejoin="round" stroke-miterlimit="2"><g fill="#fff" fill-rule="nonzero"><path d="M16.429.006v3.515h-4.897V.006L9.749.005v8.862h1.783V5.06h4.897v3.807h1.786V.006h-1.786zM40.154.006v8.858h7.824l-.991-1.558h-5.044V5.06h4.884V3.558h-4.884V1.529h5.036L47.95.006h-7.796zM3.12.004C1.265.004.328 1.132.328 2.773v3.308c0 1.899 1.207 2.786 2.783 2.786l5.595-.001-1.037-1.62H3.456c-.895 0-1.284-.323-1.284-1.325V2.92c0-.968.328-1.346 1.308-1.346h4.232l.996-1.57H3.12zM32.328.002c-1.072 0-2.169.644-2.169 2.301v.425c0 1.726 1.057 2.385 2.113 2.39h3.711c.386 0 .699.064.699.715v.753c-.01.584-.302.719-.711.719h-4.883l-1 1.559h5.996c1.446 0 2.428-.719 2.428-2.381v-.61c0-1.607-.912-2.366-2.326-2.366h-3.543c-.393 0-.666-.107-.666-.689v-.613c0-.496.188-.676.646-.676l4.648-.002L38.242 0l-5.914.002zM24.277 1.846l1.615 3.683h-3.22l1.605-3.683zm-.88-1.839l-4.202 8.859h1.986l.818-1.83h4.566l.815 1.83h1.994L25.163.007h-1.766zM54.943 0a.312.312 0 00-.312.313v2.192h5.789L57.784 0h-2.841zM60.633 3.167a.313.313 0 00-.313-.312h-2.191v5.79l2.503-2.638.001-2.84zM57.464 8.856c.173 0 .312-.14.312-.313V6.352h-5.791l2.638 2.504h2.841zM51.775 5.688c0 .173.14.314.312.314h2.192V.212l-2.504 2.636v2.84z"/></g></svg>