<svg viewBox="0 0 580 156" xmlns="http://www.w3.org/2000/svg" fill-rule="evenodd" clip-rule="evenodd" stroke-linecap="square" stroke-linejoin="round" stroke-miterlimit="1.5"><path d="M409.444 34.851v89.198" fill="none" stroke="#d61f2e" stroke-width="3.75"/><path d="M62.405 77.91c0-8.77-2.178-15.276-6.534-19.518-4.356-4.242-10.72-6.363-19.091-6.363h-7.431V97.47c0 .57.143 1.054.427 1.452.285.399.769.712 1.452.94.684.228 1.623.399 2.819.512 1.196.114 2.705.171 4.527.171 4.385 0 8.086-.527 11.104-1.58 3.018-1.053 5.467-2.562 7.346-4.527 1.879-1.965 3.246-4.342 4.1-7.132.854-2.791 1.281-5.923 1.281-9.396zm8.969-1.623c0 3.36-.583 6.691-1.751 9.994a26.596 26.596 0 01-5.296 8.926c-2.363 2.648-5.352 4.783-8.968 6.406-3.616 1.623-7.845 2.434-12.685 2.434h-17.51c-1.481 0-3.161.043-5.04.128-1.879.086-3.701.186-5.466.299-.114-.569-.171-1.025-.171-1.366 0-.797.313-1.253.939-1.367 2.107-.512 3.616-.996 4.527-1.452.911-.456 1.367-1.196 1.367-2.221V54.591c0-1.139-.427-1.936-1.281-2.392-.854-.455-2.392-.882-4.613-1.281-.341-.057-.583-.228-.726-.512a2.077 2.077 0 01-.213-.94c0-.342.057-.797.171-1.367 1.195.114 2.235.185 3.117.214a63.65 63.65 0 012.52.128c.797.057 1.58.085 2.349.085h19.945c4.783 0 8.983.741 12.599 2.221 3.616 1.481 6.62 3.474 9.011 5.979 2.392 2.506 4.186 5.439 5.381 8.798 1.196 3.36 1.794 6.948 1.794 10.763zM72.009 99.929c0-1.481.527-2.776 1.58-3.887 1.054-1.11 2.377-1.665 3.972-1.665 1.48 0 2.733.555 3.758 1.665 1.025 1.111 1.538 2.406 1.538 3.887 0 1.651-.513 3.004-1.538 4.057-1.025 1.054-2.278 1.58-3.758 1.58-1.595 0-2.918-.526-3.972-1.58-1.053-1.053-1.58-2.406-1.58-4.057zM105.323 97.824c0 .968.427 1.651 1.281 2.05.854.399 2.022.598 3.502.598h9.311c1.651 0 3.075-.214 4.27-.641 1.196-.427 2.221-1.039 3.075-1.836.855-.797 1.609-1.78 2.264-2.947.655-1.167 1.239-2.491 1.751-3.972.171-.455.513-.683 1.025-.683.285 0 .584.071.897.213.313.143.641.299.982.47a148.519 148.519 0 00-1.153 5.424 90.181 90.181 0 00-.982 6.449c-.057.626-.228 1.025-.513 1.196-.284.171-.626.256-1.025.256-.968 0-2.178-.071-3.63-.213-1.452-.143-2.719-.214-3.801-.214h-21.354c-1.31 0-2.961.043-4.954.128a296.67 296.67 0 00-5.723.299c-.114-.569-.171-1.025-.171-1.367 0-.797.285-1.252.854-1.366 2.335-.399 3.929-.84 4.783-1.324.855-.484 1.282-1.239 1.282-2.264V54.518c0-1.139-.399-1.951-1.196-2.435-.797-.484-2.335-.896-4.613-1.238a.906.906 0 01-.64-.47 1.81 1.81 0 01-.214-.897c0-.398.057-.882.171-1.452 1.936.114 3.844.214 5.723.299 1.879.086 3.474.128 4.783.128 1.936 0 3.986-.042 6.15-.128 2.164-.085 4.1-.185 5.809-.299.114.57.17 1.025.17 1.367 0 .968-.313 1.48-.939 1.537-2.449.285-4.257.698-5.424 1.239-1.167.541-1.751 1.523-1.751 2.947v42.708zM141.307 100.025c0-1.481.527-2.776 1.58-3.887 1.054-1.11 2.378-1.665 3.972-1.665 1.481 0 2.734.555 3.759 1.665 1.025 1.111 1.537 2.406 1.537 3.887 0 1.651-.512 3.003-1.537 4.057-1.025 1.053-2.278 1.58-3.759 1.58-1.594 0-2.918-.527-3.972-1.58-1.053-1.054-1.58-2.406-1.58-4.057zM189.098 52.029v21.866h13.325c1.138 0 1.95-.555 2.434-1.665.484-1.111.868-2.463 1.153-4.058.171-.74.683-1.11 1.538-1.11.17 0 .398.028.683.085.285.057.512.114.683.171a117.678 117.678 0 00-.299 4.271 79.908 79.908 0 00-.128 4.185c0 .968.029 2.15.086 3.545a85.14 85.14 0 00.341 4.741 5.284 5.284 0 01-1.281.171c-.911 0-1.452-.37-1.623-1.111-.285-1.594-.669-2.947-1.153-4.057-.484-1.11-1.296-1.666-2.434-1.666h-13.325v20.159c0 1.195.768 1.993 2.306 2.391 1.537.399 4.071.598 7.602.598h4.698c1.651 0 3.089-.242 4.313-.726a10.99 10.99 0 003.246-1.964c.94-.826 1.78-1.808 2.52-2.947a38.411 38.411 0 002.135-3.759c.171-.398.598-.598 1.282-.598.284 0 .583.086.896.257.314.171.613.341.897.512-.512 1.082-.953 2.378-1.324 3.887-.37 1.509-.726 2.947-1.067 4.313-.342 1.367-.698 2.534-1.068 3.502-.37.968-.84 1.452-1.409 1.452-.456 0-1.111-.028-1.965-.085a72.3 72.3 0 00-2.776-.128 114.57 114.57 0 01-3.032-.128 48.718 48.718 0 00-2.648-.086h-18.706c-1.652 0-3.417.043-5.296.128a266.02 266.02 0 00-5.382.299c-.113-.569-.17-1.025-.17-1.366 0-.797.284-1.253.854-1.367 2.164-.399 3.715-.826 4.655-1.281.94-.456 1.409-1.253 1.409-2.392V54.591c0-1.139-.412-1.922-1.238-2.349-.826-.427-2.435-.868-4.826-1.324-.57-.114-.854-.598-.854-1.452 0-.285.014-.527.042-.726.029-.199.072-.413.128-.641 2.449.171 4.499.285 6.15.342 1.652.057 3.132.085 4.442.085h16.827c2.563 0 4.784-.085 6.663-.256 1.879-.171 3.132-.256 3.758-.256.74 0 1.239.47 1.495 1.409.256.94.47 2.065.64 3.374.171 1.31.371 2.705.598 4.186.228 1.48.655 2.733 1.282 3.758a2.498 2.498 0 01-1.538.513c-.74 0-1.224-.257-1.452-.769-.683-1.481-1.338-2.748-1.965-3.801-.626-1.054-1.352-1.922-2.178-2.605-.825-.684-1.822-1.196-2.989-1.538-1.168-.342-2.605-.512-4.314-.512h-12.641zM242.568 94.737c2.734-6.776 4.769-11.987 6.108-15.631 1.338-3.645 2.007-5.923 2.007-6.834 0-.569-.185-1.039-.555-1.409-.37-.37-1.267-.669-2.691-.897-.74-.057-1.11-.427-1.11-1.11 0-.114.028-.285.085-.513.057-.228.114-.427.171-.598a92.56 92.56 0 007.09.256c1.309 0 2.462-.014 3.459-.042.996-.029 1.95-.1 2.861-.214.171.456.257.826.257 1.111 0 .341-.1.583-.299.726-.2.142-.47.327-.812.555a55.86 55.86 0 01-2.989 1.708c-.968.513-1.68 1.338-2.136 2.477l-12.385 30.579c-.342.114-.769.171-1.281.171-.627 0-1.068-.27-1.324-.811-.257-.541-.67-1.466-1.239-2.776l-11.702-27.163c-.342-.854-.655-1.523-.94-2.007-.284-.484-.598-.868-.939-1.153-.342-.285-.769-.498-1.281-.641a16.15 16.15 0 00-1.965-.384c-.74-.057-1.11-.484-1.11-1.281 0-.285.085-.655.256-1.111 1.423.114 2.762.185 4.014.214 1.253.028 2.705.042 4.357.042 1.822 0 3.431-.014 4.826-.042 1.395-.029 2.833-.1 4.313-.214.171.342.256.712.256 1.111 0 .683-.37 1.053-1.11 1.11-1.367.228-2.264.47-2.691.726-.427.256-.64.612-.64 1.068 0 .285.171.982.512 2.093.342 1.11.883 2.548 1.623 4.313l7.004 16.571zM295.567 101.741c.627 0 .968.598 1.025 1.794-1.48 1.025-3.359 1.537-5.637 1.537-1.253 0-2.335-.185-3.246-.555-.911-.37-1.68-.868-2.306-1.495a6.742 6.742 0 01-1.452-2.135 9.413 9.413 0 01-.684-2.477c-1.423 2.562-3.117 4.313-5.082 5.253-1.965.94-4.228 1.409-6.791 1.409-1.138 0-2.349-.099-3.63-.299a10.98 10.98 0 01-3.63-1.238c-1.139-.627-2.078-1.509-2.819-2.648-.74-1.139-1.11-2.648-1.11-4.527 0-2.107.498-3.887 1.495-5.339.996-1.452 2.277-2.648 3.843-3.587a23.168 23.168 0 015.125-2.264 80.632 80.632 0 015.339-1.452 44.804 44.804 0 002.691-.555 20.464 20.464 0 002.178-.641c.797-.227 1.295-.541 1.494-.939.2-.399.299-1.168.299-2.307 0-2.676-.512-4.883-1.537-6.619-1.025-1.737-2.847-2.606-5.467-2.606-.968 0-1.793.114-2.477.342a4.064 4.064 0 00-1.708 1.068c-.456.484-.854 1.125-1.196 1.922a30.755 30.755 0 00-1.025 2.818c-.171.627-.555 1.082-1.153 1.367-.598.285-1.609.627-3.032 1.025-.342.114-.769.228-1.282.342-.512.114-.939.171-1.281.171-.569 0-.854-.598-.854-1.794 0-1.253.484-2.506 1.452-3.758.968-1.253 2.207-2.364 3.716-3.332a22.318 22.318 0 014.911-2.349c1.765-.598 3.445-.897 5.04-.897 1.993 0 3.786.171 5.381.513 1.594.342 2.961.968 4.1 1.879 1.139.911 2.007 2.136 2.605 3.673.598 1.538.897 3.531.897 5.979v14.692c0 1.993.071 3.431.214 4.313.142.883.355 1.581.64 2.093.399.797.84 1.324 1.324 1.58.484.257.982.385 1.495.385.626 0 1.068-.057 1.324-.171.256-.114.527-.171.811-.171zm-12.898-16.656l-2.733.427c-1.48.285-2.918.626-4.313 1.025-1.396.399-2.634.954-3.716 1.666a8.38 8.38 0 00-2.605 2.69c-.655 1.082-.983 2.42-.983 4.015 0 2.164.556 3.815 1.666 4.954 1.11 1.139 2.491 1.708 4.143 1.708 1.082 0 2.149-.242 3.203-.726a8.038 8.038 0 002.733-2.05c.769-.882 1.395-1.922 1.879-3.118.484-1.195.726-2.505.726-3.929v-6.662zM337.007 99.179c0 .854.513 1.494 1.538 1.921 1.025.428 2.164.755 3.417.983.512.114.768.455.768 1.025 0 .341-.057.797-.17 1.366a275.984 275.984 0 00-4.357-.299 77.637 77.637 0 00-4.612-.128c-1.538 0-3.061.043-4.57.128-1.509.086-3.004.186-4.484.299-.114-.569-.171-1.025-.171-1.366 0-.57.256-.911.769-1.025 1.195-.228 2.277-.555 3.245-.983.968-.427 1.452-1.067 1.452-1.921V82.437a27.85 27.85 0 00-.256-3.929c-.171-1.196-.498-2.235-.982-3.118s-1.139-1.566-1.965-2.05c-.825-.484-1.893-.726-3.203-.726a12.45 12.45 0 00-4.185.726 10.824 10.824 0 00-3.63 2.135c-1.054.94-1.894 2.093-2.52 3.46-.627 1.366-.94 2.932-.94 4.698v15.546c0 .854.498 1.494 1.495 1.921.997.428 2.064.755 3.203.983.513.114.769.455.769 1.025 0 .341-.057.797-.171 1.366a276.69 276.69 0 00-4.356-.299 76.116 76.116 0 00-4.527-.128 82.08 82.08 0 00-4.698.128c-1.481.086-2.933.186-4.356.299-.114-.569-.171-1.025-.171-1.366 0-.57.256-.911.768-1.025 1.253-.228 2.392-.555 3.417-.983 1.025-.427 1.538-1.096 1.538-2.007V75.86c0-1.709-.299-2.933-.897-3.673-.598-.74-1.894-1.196-3.887-1.367-.74-.114-1.11-.512-1.11-1.196 0-.284.057-.654.171-1.11.74 0 1.779-.043 3.117-.128a50.05 50.05 0 003.289-.299c1.31-.228 2.477-.47 3.502-.726s1.765-.385 2.221-.385c.797 0 1.196.428 1.196 1.282 0 .797-.086 1.751-.257 2.861-.17 1.111-.256 2.577-.256 4.399 2.449-2.733 4.798-4.84 7.047-6.321 2.249-1.48 4.712-2.221 7.389-2.221 3.473 0 6.078 1.011 7.815 3.033 1.737 2.021 2.605 4.826 2.605 8.413v20.757zM369.809 77.483c-.455 0-.783-.1-.982-.299a1.391 1.391 0 01-.385-.641c-.398-2.335-1.323-4-2.776-4.997-1.452-.996-3.26-1.495-5.424-1.495-1.651 0-3.117.47-4.398 1.41-1.282.939-1.922 2.235-1.922 3.886 0 1.481.583 2.719 1.751 3.716 1.167.996 3.288 1.979 6.363 2.947a40.322 40.322 0 014.57 1.708c1.395.627 2.591 1.381 3.588 2.264.996.882 1.779 1.964 2.348 3.246.57 1.281.855 2.804.855 4.569 0 1.481-.271 2.904-.812 4.271a9.676 9.676 0 01-2.477 3.588c-1.11 1.025-2.505 1.85-4.185 2.477-1.68.626-3.687.939-6.022.939-1.822 0-3.858-.213-6.107-.64-2.25-.427-4.286-1.153-6.108-2.178a195.788 195.788 0 01-.299-4.656 93.885 93.885 0 01-.128-4.911h.854c.57 0 1.054.1 1.452.299.399.199.627.527.684.982.228 2.392 1.153 4.314 2.776 5.766 1.623 1.452 3.886 2.178 6.79 2.178 2.335 0 4.129-.527 5.382-1.58 1.252-1.054 1.879-2.492 1.879-4.314 0-1.879-.684-3.317-2.05-4.313-1.367-.997-3.388-1.894-6.065-2.691-3.359-1.025-5.993-2.363-7.901-4.015-1.907-1.651-2.861-4.071-2.861-7.26 0-1.481.284-2.876.854-4.185a10.286 10.286 0 012.392-3.417c1.025-.968 2.277-1.737 3.758-2.306 1.48-.57 3.132-.855 4.954-.855 2.278 0 4.427.299 6.449.897 2.022.598 3.602 1.239 4.741 1.922.057.456.114 1.011.17 1.666.057.655.1 1.338.129 2.05l.085 2.135c.028.712.043 1.353.043 1.922l-1.965-.085zM459.44 90.97c3.081 0 4.711-.814 5.95-1.983 1.488-1.417 2.09-3.117 2.09-4.781 0-2.834-1.7-5.242-4.498-5.809 1.912-.637 3.294-2.656 3.294-4.887 0-1.417-.567-2.656-1.559-3.648-1.204-1.204-3.046-2.019-5.631-2.019h-13.423V90.97h13.777zm.567-10.731a4.4 4.4 0 013.187 1.346c.673.673 1.098 1.594 1.098 2.585a3.893 3.893 0 01-1.204 2.798c-.885.886-2.196 1.275-3.542 1.275h-10.802v-8.004h11.263zm-1.24-9.669c1.452 0 2.55.354 3.365 1.134.602.637.956 1.452.956 2.373 0 .991-.39 1.947-1.098 2.656-.708.708-1.7 1.027-2.798 1.027h-10.448v-7.19h10.023zM480.017 90.97l3.117-6.941h11.546l3.152 6.941h3.364l-10.731-23.127h-2.904L476.83 90.97h3.187zm8.784-19.514h.212l4.569 10.093h-9.35l4.569-10.093zM529.459 67.843v17.744h-.036l-14.697-17.744h-2.798V90.97h3.081V73.227h.035l14.698 17.743h2.798V67.843h-3.081zM562.715 67.843l-13.21 12.856V67.843h-3.082V90.97h3.082v-6.835l5.56-5.419 9.421 12.254h3.967l-11.157-14.308 9.209-8.819h-3.79z" fill="#fff" fill-rule="nonzero"/></svg>