<svg viewBox="0 0 160 70" xmlns="http://www.w3.org/2000/svg" fill-rule="evenodd" clip-rule="evenodd" stroke-linejoin="round" stroke-miterlimit="2"><path d="M22.243 67.767v-2.296c2.316-.166 3.64-.347 3.971-.543.331-.197.538-.564.621-1.102.206-1.137.31-4.064.31-8.78 0-6.474-.093-10.156-.279-11.046-.083-.413-.218-.682-.404-.806-.413-.269-1.82-.414-4.219-.435v-2.358c3.123-.33 5.481-.682 7.074-1.054 1.592-.373 3.33-.942 5.212-1.707l.745.403a119.02 119.02 0 00-.373 9.091v10.549c0 3.599.083 5.73.249 6.391.082.373.248.621.496.745.559.269 1.913.445 4.064.528v2.42a340.889 340.889 0 00-9.587-.125c-2.978 0-5.605.042-7.88.125zM29.52 23.827c1.324 0 2.446.466 3.366 1.396.921.931 1.381 2.048 1.381 3.351 0 1.324-.46 2.451-1.381 3.382-.92.931-2.042 1.396-3.366 1.396-1.303 0-2.42-.465-3.351-1.396-.93-.931-1.396-2.058-1.396-3.382 0-1.303.46-2.42 1.381-3.351.92-.93 2.042-1.396 3.366-1.396z" fill="#6caee0"/><path d="M78.252 65.323v2.234l-6.515-.094-5.585.094-.279-.249.155-2.451.062-2.544a287.353 287.353 0 00-4.685 4.034 16.04 16.04 0 01-1.954 1.582c-.786.31-1.831.465-3.134.465-3.434 0-6.278-1.256-8.532-3.769-2.255-2.514-3.382-5.952-3.382-10.317 0-2.42.331-4.581.993-6.484.496-1.448 1.075-2.565 1.737-3.351.476-.579 1.867-1.675 4.173-3.289 2.306-1.613 3.961-2.611 4.964-2.994 1.004-.382 2.301-.574 3.894-.574.993 0 1.815.073 2.467.217.651.145 1.773.528 3.366 1.148.062-1.199.093-2.471.093-3.816 0-1.572-.052-3.475-.155-5.709-.041-1.075-.155-1.747-.341-2.016a1.002 1.002 0 00-.621-.404c-.269-.062-1.541-.124-3.816-.186v-2.296c4.406-.434 8.491-1.334 12.255-2.699l.807.465c-.248 5.544-.383 8.801-.403 9.774-.062 5.398-.093 12.958-.093 22.68v2.885c0 1.407.051 2.927.155 4.561.062 1.158.165 1.867.31 2.125.145.259.383.45.714.574.331.124 1.447.259 3.35.404zM65.997 45.497c-1.138-1.365-2.068-2.255-2.792-2.668-1.365-.786-2.865-1.179-4.499-1.179-1.427 0-2.591.346-3.491 1.039-.899.693-1.572 1.815-2.016 3.366-.445 1.552-.667 3.341-.667 5.368 0 3.764.806 6.671 2.42 8.718 1.199 1.51 2.813 2.265 4.84 2.265 1.53 0 2.87-.434 4.018-1.303 1.148-.869 1.83-1.706 2.047-2.513.218-.807.326-3.268.326-7.384l-.186-5.709zM107.065 63.216l-.993 2.234c-1.427.889-2.472 1.479-3.134 1.768-.972.435-2.084.802-3.335 1.102-1.252.3-2.57.45-3.956.45-2.73 0-5.202-.569-7.415-1.707-2.214-1.137-3.936-2.839-5.166-5.103-1.231-2.265-1.846-4.918-1.846-7.959 0-2.378.325-4.524.977-6.438.652-1.913 1.391-3.325 2.218-4.235.6-.662 1.531-1.422 2.793-2.28 1.262-.859 2.513-1.536 3.754-2.032 1.634-.683 3.402-1.024 5.305-1.024 2.317 0 4.411.527 6.283 1.582 1.872 1.055 3.242 2.493 4.111 4.313.869 1.82 1.303 3.878 1.303 6.174 0 .579-.041 1.282-.124 2.11-1.489.289-2.823.475-4.002.558a90.41 90.41 0 01-6.702.248h-9.959c.041 2.958.553 5.352 1.536 7.183.982 1.831 2.337 3.18 4.064 4.049 1.727.869 3.521 1.303 5.383 1.303 1.262 0 2.518-.202 3.77-.605 1.251-.403 2.797-1.143 4.638-2.218l.497.527zm-19.888-12.69c.579.062 1.675.124 3.289.187 3.081.103 5.202.155 6.36.155 2.751 0 4.561-.052 5.429-.155.021-.497.032-.88.032-1.148 0-3.269-.662-5.668-1.986-7.199-1.324-1.53-3.092-2.295-5.306-2.295-2.337 0-4.219.837-5.646 2.513-1.428 1.675-2.152 4.323-2.172 7.942zM115.859 46.544l-1.697-.435c.022-.475.032-1.127.032-1.954 0-.869-.01-1.562-.032-2.079 2.711-1.717 4.931-2.875 6.66-3.475 1.324-.434 2.807-.652 4.451-.652 2.433 0 4.482.445 6.147 1.334 1.665.89 2.903 2.162 3.714 3.817.555 1.158.833 2.74.833 4.747l-.128 5.678v9.245c0 .993.085 1.707.256 2.141.128.31.331.538.608.683.214.124.662.207 1.345.248l2.081.186v1.769c-1.75-.145-3.287-.218-4.61-.218-1.281 0-2.989.073-5.123.218l.16-5.461c-4.355 3.185-6.937 4.98-7.749 5.383-.811.403-1.835.605-3.073.605-2.583 0-4.595-.667-6.036-2.001-1.441-1.334-2.161-3.108-2.161-5.321 0-1.427.251-2.73.752-3.909.502-1.179 1.105-2.115 1.809-2.808.705-.693 1.42-1.205 2.146-1.536 1.238-.559 3.249-1.158 6.035-1.8a74.23 74.23 0 018.277-1.427c.021-1.965-.224-3.495-.737-4.592-.512-1.096-1.376-1.996-2.593-2.699-1.217-.703-2.7-1.055-4.451-1.055-1.259 0-2.364.166-3.314.497-.949.33-1.531.61-1.745.837l-.576 1.117a58.21 58.21 0 00-1.281 2.917zm14.697 4.871c-2.775.455-5.144.962-7.108 1.52-1.964.558-3.352 1.138-4.163 1.737-.491.352-.917.88-1.28 1.583-.555 1.034-.833 2.182-.833 3.444 0 1.53.438 2.725 1.313 3.583.875.859 2.092 1.288 3.65 1.288 1.43 0 2.844-.398 4.242-1.195 1.399-.796 2.791-1.991 4.179-3.583v-8.377zM142.653 67.743v-1.768l2.917-.031c.455-.021.801-.099 1.039-.233.238-.135.419-.305.543-.512.228-.414.362-1.148.403-2.203.021-.269.094-3.237.218-8.904V41.216c0-3.455-.062-7.023-.187-10.704-.082-2.482-.196-3.868-.341-4.158a.857.857 0 00-.496-.434c-.31-.145-1.738-.217-4.282-.217v-1.831c4.675-.579 7.922-1.303 9.742-2.172.269-.124.476-.186.621-.186.145 0 .258.047.341.14.083.093.124.222.124.387 0 .145-.02.352-.062.621l-.031 1.024a490.288 490.288 0 00-.186 9.463l-.062 4.84v16.103c.103 5.377.165 8.284.186 8.718.021 1.034.145 1.789.372 2.265.083.186.207.346.373.481.165.134.413.243.744.326.145.02 1.293.051 3.444.093v1.768c-2.813-.165-5.284-.248-7.415-.248-2.027 0-4.695.083-8.005.248z" fill="#6caee0" fill-rule="nonzero"/><path d="M34.89 1.167l-6.067 14.969s2.02.065 2.992.28c.972.216 2.838 1.013 2.838 1.013l.237-16.262zM13.844 5.141l6.144 14.938s1.489-1.368 2.334-1.894c.844-.526 2.735-1.263 2.735-1.263L13.844 5.141zM1.546 23.205l15.129 5.658s.009-2.021.198-2.999c.189-.977.935-2.864.935-2.864l-16.262.205zM5.071 44.439l14.909-6.216s-1.376-1.482-1.906-2.324c-.53-.842-1.276-2.729-1.276-2.729L5.071 44.439zM52.738 13.06l-14.989 6.021s1.356 1.5 1.875 2.349c.52.849 1.241 2.745 1.241 2.745L52.738 13.06zM57.274 33.968L42.26 28.009s-.05 2.021-.258 2.995c-.209.973-.992 2.844-.992 2.844l16.264.12z" fill="#6caee0"/></svg>
